<?xml version="1.0" encoding="UTF-8"?>
<svg version="1.1" xmlns="http://www.w3.org/2000/svg" width="864" height="262">
<path d="M0 0 C0 2.97 0 5.94 0 9 C1.13695312 8.96519531 2.27390625 8.93039063 3.4453125 8.89453125 C17.62222571 8.5922385 33.59712932 9.37655334 45.375 18.3125 C50.52880139 23.58901095 53.10398078 29.17636089 53.25 36.5625 C53.09116451 47.37919689 49.34218806 57.14903212 42.03125 65.15625 C31.64436869 74.94099327 19.32123583 79.69111685 6 84 C8.65309322 94.86164615 12.43163465 105.37494221 16.0625 115.9375 C16.56429779 117.39923645 16.56429779 117.39923645 17.07623291 118.89050293 C18.76088658 123.79605181 20.44961084 128.70017315 22.14208984 133.60302734 C23.51851005 137.59362041 24.87945811 141.5890996 26.23039246 145.58837891 C35.53074825 174.3556452 35.53074825 174.3556452 55.93359375 195.76171875 C61.46772541 197.99652096 67.67466783 198.2659894 73.30859375 196.12109375 C81.10529171 191.51602654 86.60696807 184.7940889 91 177 C95.24750139 178.67013404 98.07864943 181.71123639 101.25 184.875 C101.80429687 185.40480469 102.35859375 185.93460938 102.9296875 186.48046875 C104.36859079 187.90873975 105.69280584 189.4502761 107 191 C107 192.32 107 193.64 107 195 C92.91734322 203.26936433 80.90460159 209.1610939 64.3125 209.25 C62.89807617 209.2809375 62.89807617 209.2809375 61.45507812 209.3125 C47.36830425 209.38995305 35.50918092 204.02576867 25.37890625 194.37109375 C24.59386719 193.58863281 23.80882812 192.80617187 23 192 C22.28714844 191.31035156 21.57429687 190.62070313 20.83984375 189.91015625 C10.53944557 179.25251883 6.27472934 164.79872331 1.84765625 151.0078125 C1.29810951 149.32357123 0.74758954 147.63964724 0.19615173 145.95602417 C-1.23546438 141.57644053 -2.65403843 137.19274521 -4.06970215 132.8079834 C-5.52345934 128.31338086 -6.98983744 123.82290041 -8.45507812 119.33203125 C-11.31557494 110.55861985 -14.16227568 101.78080129 -17 93 C-18.57253637 97.16941308 -20.14135119 101.33236963 -21.578125 105.55078125 C-28.43867625 125.26974321 -39.36097976 138.45261827 -55 152 C-55.33 152.33 -55.66 152.66 -56 153 C-54.87464844 152.9278125 -53.74929688 152.855625 -52.58984375 152.78125 C-42.70830895 152.17460292 -32.9005472 151.86857681 -23 152 C-24.19292443 155.5787733 -24.81530169 155.73533533 -28.04296875 157.41015625 C-28.86990234 157.84263672 -29.69683594 158.27511719 -30.54882812 158.72070312 C-31.41958984 159.16349609 -32.29035156 159.60628906 -33.1875 160.0625 C-34.03892578 160.50916016 -34.89035156 160.95582031 -35.76757812 161.41601562 C-42.23522799 164.76238667 -47.89201607 167.19603366 -55.28076172 167.41064453 C-56.5015744 167.45053497 -57.72238708 167.49042542 -58.98019409 167.53152466 C-60.28352692 167.56494965 -61.58685974 167.59837463 -62.9296875 167.6328125 C-64.2887713 167.6740054 -65.64783102 167.71599968 -67.00686646 167.75875854 C-70.56746814 167.86864565 -74.12829033 167.9677053 -77.68927002 168.06445312 C-81.32950237 168.16529115 -84.9694183 168.27644919 -88.609375 168.38671875 C-95.73930832 168.60120225 -102.86952604 168.80423975 -110 169 C-108.73021278 163.03056799 -104.75016257 158.79047136 -100.00537109 155.13525391 C-94.6564409 152.10718897 -88.04956855 152.16666222 -82.0546875 151.58203125 C-72.89165547 150.66776352 -64.98814792 147.3973899 -58.80078125 140.44140625 C-52.79433472 132.29817613 -49.6960657 123.71461809 -47.34375 114 C-46.9693428 112.47765747 -46.9693428 112.47765747 -46.58737183 110.92456055 C-42.70053288 94.8965875 -39.23511558 78.76762147 -35.7074585 62.65777588 C-34.72417694 58.17103215 -33.73689628 53.68516851 -32.75 49.19921875 C-30.82952459 40.46697954 -28.91331967 31.73380969 -27 23 C-29.38690706 23.61182422 -31.7719074 24.22988661 -34.15625 24.8515625 C-34.8255957 25.02244385 -35.49494141 25.1933252 -36.18457031 25.36938477 C-45.62296692 27.84436774 -54.70050021 31.91666519 -60.46875 40.078125 C-66.6522044 50.93512051 -66.72225627 62.44889683 -64.08203125 74.27758789 C-63.20490429 78.23174808 -62.70528691 81.13308276 -64 85 C-65.99365234 86.68505859 -65.99365234 86.68505859 -68.5859375 88.1484375 C-69.51664062 88.67824219 -70.44734375 89.20804687 -71.40625 89.75390625 C-72.3859375 90.28886719 -73.365625 90.82382813 -74.375 91.375 C-75.83292969 92.21224609 -75.83292969 92.21224609 -77.3203125 93.06640625 C-82.67666455 96.06270816 -82.67666455 96.06270816 -85 97 C-86.485 96.505 -86.485 96.505 -88 96 C-93.46676573 83.10923142 -93.01191039 63.86892781 -88 51 C-80.91148508 35.12602265 -68.91734192 25.56091154 -53 19 C-47.21315506 17.12434888 -41.37408542 15.40310551 -35.32299805 14.68017578 C-26.79254952 13.60079858 -20.28584056 10.52144147 -12.8125 6.375 C-10.59045572 5.17334685 -8.36783311 3.97276228 -6.14453125 2.7734375 C-5.17878174 2.24153809 -4.21303223 1.70963867 -3.21801758 1.16162109 C-1 0 -1 0 0 0 Z M-4 20 C-6.84977729 31.01939454 -9.38659179 42.08269803 -11.71972656 53.22265625 C-12.25843413 55.790198 -12.80479284 58.35603938 -13.3515625 60.921875 C-13.69837214 62.56761242 -14.0447433 64.21344231 -14.390625 65.859375 C-14.55306702 66.6197406 -14.71550903 67.3801062 -14.88287354 68.16351318 C-15.58564519 71.54644888 -16 74.52609959 -16 78 C-4.66523015 78.78926831 4.18773526 76.28105171 12.9375 68.90625 C23.36831781 59.26564566 28.53920038 47.9585936 29.375 33.75 C28.91620265 29.1620265 28.19122005 27.34318291 25 24 C16.56267442 18.18240078 5.73659336 19.64012591 -4 20 Z " fill="#BA0000" transform="translate(489,24)"/>
<path d="M0 0 C2.97721738 0.01851043 5.95412697 0.02050741 8.93139648 0.02026367 C10.8252794 0.02517096 12.71916021 0.0309958 14.61303711 0.0378418 C15.50250534 0.03895462 16.39197357 0.04006744 17.30839539 0.04121399 C23.52525743 0.08965508 23.52525743 0.08965508 25.75756836 1.20581055 C25.53801361 5.04801863 24.79195629 6.17142262 22.00756836 8.95581055 C18.91472809 11.09700766 17.34620424 11.6443233 13.75756836 12.20581055 C13.52392578 13.1577832 13.2902832 14.10975586 13.04956055 15.09057617 C10.51943614 25.33851129 7.80515657 35.52802607 5.00756836 45.70581055 C4.5920419 47.2226933 4.17667668 48.73962022 3.76147461 50.2565918 C2.76201882 53.90684013 1.76042394 57.55649486 0.75756836 61.20581055 C6.685553 56.95743259 12.5408702 52.71436268 18.07006836 47.95581055 C18.87371826 47.26829712 18.87371826 47.26829712 19.69360352 46.56689453 C21.95459119 44.63054302 24.205844 42.68304182 26.45727539 40.7355957 C71.24851291 2.0051765 71.24851291 2.0051765 88.96069336 2.1081543 C89.94038086 2.11137695 90.92006836 2.11459961 91.92944336 2.11791992 C92.94522461 2.12629883 93.96100586 2.13467773 95.00756836 2.14331055 C96.55444336 2.15007813 96.55444336 2.15007813 98.13256836 2.15698242 C100.67429409 2.16874967 103.21590155 2.18519043 105.75756836 2.20581055 C104.46699444 10.00514507 99.71644357 17.96965692 93.75756836 23.20581055 C90.07041974 24.02967892 87.68089905 23.59396174 84.00366211 22.82299805 C73.4570177 20.81773954 62.39185467 27.67799272 53.75756836 33.20581055 C44.37787242 39.67568315 36.05381966 47.43294692 27.75756836 55.20581055 C25.68102179 57.10915179 23.5949913 59.00191205 21.50756836 60.89331055 C20.59491211 61.72217773 19.68225586 62.55104492 18.74194336 63.4050293 C17.75967773 64.29641602 17.75967773 64.29641602 16.75756836 65.20581055 C25.0137319 86.16502176 33.63292632 106.97443719 42.27212524 127.77793884 C44.4354165 132.99343109 46.58005778 138.21563281 48.69361877 143.45147705 C49.83985541 146.28811875 50.99683847 149.12030239 52.15560913 151.95184326 C52.91324099 153.8150395 53.65569329 155.68438641 54.39746094 157.55395508 C58.49939352 167.53363515 63.53793243 178.05501279 73.98022461 182.46362305 C80.70809992 184.26150815 87.84372094 184.47110068 94.25756836 181.51831055 C100.24740644 177.91937422 103.55371357 173.25753627 106.75756836 167.20581055 C108.98469401 169.4329362 109.37871855 170.69544262 110.26538086 173.6706543 C110.66176758 174.99419922 110.66176758 174.99419922 111.06616211 176.34448242 C111.33557617 177.2680957 111.60499023 178.19170898 111.88256836 179.14331055 C112.1597168 180.06305664 112.43686523 180.98280273 112.72241211 181.93041992 C114.75756836 188.80283179 114.75756836 188.80283179 114.75756836 192.20581055 C92.7565755 198.10489632 71.69312499 197.70472419 51.57006836 186.45581055 C34.74382641 175.74820204 27.10749572 160.65677648 20.86694336 142.3269043 C20.3473127 140.82214539 20.3473127 140.82214539 19.81718445 139.2869873 C18.70896464 136.07412954 17.60818425 132.8587801 16.50756836 129.64331055 C15.74774594 127.43618405 14.98740898 125.22923463 14.2265625 123.02246094 C12.73894895 118.70558341 11.25401176 114.38780244 9.77172852 110.0690918 C7.26088217 102.75538056 4.72904317 95.44903531 2.19506836 88.14331055 C1.50604246 86.15250258 0.81720931 84.16162788 0.12866211 82.1706543 C-0.14018799 81.39326904 -0.40903809 80.61588379 -0.68603516 79.81494141 C-0.869646 79.28392822 -1.05325684 78.75291504 -1.24243164 78.20581055 C-1.65493164 79.39174805 -2.06743164 80.57768555 -2.49243164 81.79956055 C-11.17143805 106.31788106 -22.47254461 124.06684409 -41.24243164 142.20581055 C-27.87743164 142.70081055 -27.87743164 142.70081055 -14.24243164 143.20581055 C-15.24243164 148.20581055 -15.24243164 148.20581055 -16.73852539 149.68237305 C-28.50234407 156.6412517 -40.45675982 157.36404701 -53.83618164 157.3034668 C-55.61708191 157.30134438 -55.61708191 157.30134438 -57.43395996 157.29917908 C-61.2034768 157.29360865 -64.97293293 157.2810616 -68.74243164 157.26831055 C-71.30753495 157.26329173 -73.87263919 157.25872949 -76.43774414 157.25463867 C-82.70599381 157.24364891 -88.97420839 157.22694036 -95.24243164 157.20581055 C-92.38586915 151.09825802 -87.27451013 146.22883316 -81.24243164 143.20581055 C-76.33926777 141.9867854 -71.27022514 142.24143696 -66.25073242 142.25415039 C-58.30618599 142.06292498 -51.59927546 139.82034889 -45.97290039 134.18237305 C-45.4018457 133.53010742 -44.83079102 132.8778418 -44.24243164 132.20581055 C-43.46319336 131.32022461 -43.46319336 131.32022461 -42.66821289 130.41674805 C-32.23861598 116.67486445 -29.1490784 96.84836606 -25.36743164 80.45581055 C-24.85371164 78.27002609 -24.33896731 76.08448215 -23.82324219 73.89916992 C-22.27926085 67.33862869 -20.75794181 60.77297934 -19.24243164 54.20581055 C-19.00747986 53.18898193 -18.77252808 52.17215332 -18.53045654 51.12451172 C-17.85448347 48.19861011 -17.17913639 45.27256501 -16.50415039 42.34643555 C-16.18776611 40.97494354 -16.18776611 40.97494354 -15.86499023 39.57574463 C-14.87707126 35.28884035 -13.89376395 31.00098496 -12.9206543 26.71069336 C-12.65742119 25.55582428 -12.65742119 25.55582428 -12.38887024 24.37762451 C-12.06427726 22.95286135 -11.74170076 21.52763662 -11.42155457 20.10186768 C-10.35484988 15.43064702 -10.35484988 15.43064702 -9.24243164 13.20581055 C-31.50397997 13.88765343 -31.50397997 13.88765343 -50.61743164 24.33081055 C-58.25814891 37.84900264 -55.06365016 53.57101891 -53.24243164 68.20581055 C-56.5098682 69.54757835 -59.78190072 70.87775413 -63.05493164 72.20581055 C-64.44808594 72.7781543 -64.44808594 72.7781543 -65.86938477 73.36206055 C-66.76206055 73.72299805 -67.65473633 74.08393555 -68.57446289 74.45581055 C-69.80773315 74.95854492 -69.80773315 74.95854492 -71.06591797 75.47143555 C-73.24243164 76.20581055 -73.24243164 76.20581055 -76.24243164 76.20581055 C-80.95099845 60.5946694 -81.67566713 43.44418456 -73.92211914 28.6940918 C-72.4904974 26.39019779 -70.95285852 24.30971591 -69.24243164 22.20581055 C-68.4496582 21.19260742 -68.4496582 21.19260742 -67.64086914 20.15893555 C-51.35949196 1.65411039 -22.82299889 -0.14731921 0 0 Z " fill="#B90000" transform="translate(152.242431640625,35.794189453125)"/>
<path d="M0 0 C1.99779364 1.64036856 2.92047894 2.50167234 3.33492279 5.09883118 C3.14437758 11.40396764 2.60306952 17.59854833 1.80664062 23.85546875 C1.616446 25.40899803 1.616446 25.40899803 1.42240906 26.99391174 C1.14833736 29.22741979 0.87160293 31.46060241 0.592453 33.69348145 C0.14922201 37.24379474 -0.28559206 40.79504988 -0.71813965 44.34667969 C-1.94873881 54.43979428 -3.19314471 64.53118234 -4.44580078 74.62158203 C-5.21360794 80.81120408 -5.97071129 87.00206415 -6.72163391 93.1937561 C-7.00777026 95.53506533 -7.2979386 97.8758859 -7.592453 100.21615601 C-8.93415201 110.88132788 -10.24298141 121.5051398 -10.36523438 132.265625 C-10.38688534 133.3455069 -10.38688534 133.3455069 -10.40897369 134.44720459 C-10.37440007 138.79271876 -9.63265665 141.53216547 -7 145 C0.24613221 150.10139963 13.72032439 146.74784167 22 146 C21.51376478 150.21403857 19.17377074 153.33473107 16 156 C12.94680345 157.25611824 9.85469551 157.77327375 6.60546875 158.30078125 C5.69928299 158.46748825 4.79309723 158.63419525 3.85945129 158.80595398 C0.97238562 159.33119817 -1.91935243 159.82199302 -4.8125 160.3125 C-6.74583951 160.65990833 -8.6787887 161.00949636 -10.61132812 161.36132812 C-18.39080619 162.7613559 -26.14796852 164.07826192 -34 165 C-39.1995186 155.76414876 -35.11639357 141.48435587 -34 131.375 C-33.80680555 129.58989629 -33.61409308 127.80474035 -33.421875 126.01953125 C-32.95347528 121.67906493 -32.47854494 117.33935901 -32 113 C-38.19036129 112.82011899 -44.37393378 112.72798254 -50.56689453 112.71313477 C-52.66780013 112.69621537 -54.76866215 112.65631972 -56.86865234 112.59204102 C-69.68103722 111.8185948 -69.68103722 111.8185948 -80.97924805 116.79394531 C-83.61809815 119.42824239 -85.83236425 122.27306502 -87.90222168 125.36927795 C-89.55558255 127.82530389 -91.43865175 130.08537946 -93.3125 132.375 C-94.38371094 133.69564453 -94.38371094 133.69564453 -95.4765625 135.04296875 C-106.37834129 147.8179634 -118.50331241 160.96079207 -136.1171875 162.95703125 C-143.62194111 163.06889072 -150.30088001 161.27512533 -157 158 C-156.45274596 153.4451625 -154.63935597 150.56361946 -152.0625 146.8125 C-151.35222656 145.76707031 -150.64195312 144.72164062 -149.91015625 143.64453125 C-148 141 -148 141 -146 139 C-144.11157227 138.74462891 -144.11157227 138.74462891 -141.81640625 138.7265625 C-140.97634033 138.70899902 -140.13627441 138.69143555 -139.27075195 138.67333984 C-138.37702881 138.6573877 -137.48330566 138.64143555 -136.5625 138.625 C-121.00056816 138.06473181 -111.68182913 132.94327769 -100.81591797 121.97436523 C-97.71497283 118.60284825 -95.09440903 114.91210998 -92.4375 111.1875 C-87.7362829 104.69870948 -82.95248429 98.29916967 -78 92 C-72.61145344 85.1335725 -67.40098535 78.15515511 -62.25219727 71.10766602 C-58.24349953 65.63902082 -54.12627171 60.26913986 -49.9375 54.9375 C-45.03846235 48.69423955 -40.27613707 42.36782358 -35.625 35.9375 C-35.059021 35.15689209 -34.49304199 34.37628418 -33.90991211 33.57202148 C-31.30340861 30.54318277 -31.30340861 30.54318277 -30 27 C-46.15390659 23.40310629 -67.19831162 21.48483881 -81.9296875 30.1328125 C-87.01684049 33.80821969 -88.51461296 38.79708957 -89.8125 44.6875 C-90.56672121 52.62991109 -88.40365549 60.69737575 -85.5859375 68.0625 C-85 70 -85 70 -85 74 C-86.48120117 75.34033203 -86.48120117 75.34033203 -88.54296875 76.5078125 C-89.65961914 77.15169922 -89.65961914 77.15169922 -90.79882812 77.80859375 C-91.58708984 78.24300781 -92.37535156 78.67742187 -93.1875 79.125 C-93.95642578 79.56714844 -94.72535156 80.00929688 -95.51757812 80.46484375 C-99.25836938 82.59051226 -102.93533558 84.55007963 -107 86 C-109.42809632 79.10933182 -110.49169545 72.98300099 -110.375 65.6875 C-110.36629883 64.77540771 -110.35759766 63.86331543 -110.34863281 62.92358398 C-110.00321023 46.92230736 -105.12339306 37.74903793 -93.84814453 26.47753906 C-92.38883857 25.01387985 -90.94629547 23.53499546 -89.50390625 22.0546875 C-79.57051044 11.9935105 -69.42337847 5.13716998 -54.9765625 4.63671875 C-52.85930774 4.63802893 -50.742008 4.65514963 -48.625 4.6875 C-47.57828125 4.68427734 -46.5315625 4.68105469 -45.453125 4.67773438 C-39.04037485 4.72127774 -32.98405671 5.3837625 -26.67871094 6.53051758 C-18.89791324 7.89421371 -11.4781998 8.55729653 -4.6875 4.0625 C-3.03317416 2.76900678 -1.48294854 1.48294854 0 0 Z M-23 39 C-24.76979346 41.24711079 -26.48767287 43.51303401 -28.1875 45.8125 C-28.98728271 46.88697388 -28.98728271 46.88697388 -29.80322266 47.9831543 C-31.5396211 50.31906556 -33.27054806 52.65894183 -35 55 C-35.84763916 56.14662109 -35.84763916 56.14662109 -36.71240234 57.31640625 C-39.61006477 61.23857858 -42.50241934 65.16460932 -45.390625 69.09375 C-47.87464659 72.47289 -50.364782 75.84740679 -52.859375 79.21875 C-53.4898877 80.07170654 -54.12040039 80.92466309 -54.77001953 81.8034668 C-55.97307243 83.43070747 -57.17711427 85.05721763 -58.38232422 86.68286133 C-58.92904785 87.4230249 -59.47577148 88.16318848 -60.0390625 88.92578125 C-60.75376709 89.89124878 -60.75376709 89.89124878 -61.48291016 90.8762207 C-63.38559988 93.5398026 -65.18426563 96.27639845 -67 99 C-54.46 99 -41.92 99 -29 99 C-27.99812374 91.74150876 -26.99954826 84.48271824 -26.00927734 77.22265625 C-25.67168246 74.75494445 -25.33218606 72.28749198 -24.99072266 69.8203125 C-24.49917934 66.26629667 -24.01456696 62.71139273 -23.53125 59.15625 C-23.37813354 58.06010376 -23.22501709 56.96395752 -23.06726074 55.83459473 C-22.30333742 50.16302944 -21.83097705 44.72263406 -22 39 C-22.33 39 -22.66 39 -23 39 Z " fill="#BA0000" transform="translate(694,33)"/>
<path d="M0 0 C13.05304842 10.85948634 19.99901012 25.22108399 21.62109375 42.09765625 C23.25084351 70.09972022 15.57724859 99.92693035 -2.9375 121.5625 C-4.67672981 123.51294331 -6.45399178 125.41298352 -8.25 127.3125 C-8.83007812 127.97121094 -9.41015625 128.62992188 -10.0078125 129.30859375 C-25.20422132 145.84137018 -47.25797538 154.60325134 -69.3125 156.125 C-84.94157066 156.75881988 -100.38294862 156.31552685 -113.25 146.3125 C-126.86601942 132.50571324 -130.52074083 115.05164404 -130.49658203 96.28198242 C-130.1735528 71.81362407 -121.42886158 47.75704042 -105.25 29.3125 C-104.64800781 28.56742188 -104.04601562 27.82234375 -103.42578125 27.0546875 C-82.08631589 1.37575015 -30.67768981 -21.09825793 0 0 Z M-81.37109375 27.62109375 C-99.14106901 48.7164445 -106.12233757 76.12459823 -104.25 103.3125 C-102.83909599 114.77609511 -98.25005804 127.57451906 -89.25 135.3125 C-78.79474019 142.35802643 -68.5523282 143.52927179 -56.25 142.3125 C-39.35902906 138.92053132 -27.77368469 127.29552837 -18.35546875 113.546875 C-13.19601196 105.31872168 -10.07037929 96.54668023 -7.25 87.3125 C-6.90710938 86.22839844 -6.56421875 85.14429687 -6.2109375 84.02734375 C-1.2689147 65.39083719 -2.32449481 43.42636664 -11.1875 26.25 C-12.17922349 24.58646383 -13.19684537 22.937841 -14.25 21.3125 C-14.62769531 20.71953125 -15.00539063 20.1265625 -15.39453125 19.515625 C-20.20841846 12.91566657 -28.27219616 8.89321213 -36.18359375 7.55859375 C-54.51887804 5.37499657 -69.40975615 14.60240034 -81.37109375 27.62109375 Z " fill="#BC0000" transform="translate(368.25,39.6875)"/>
<path d="M0 0 C1.18136536 0.01110306 2.36273071 0.02220612 3.57989502 0.03364563 C4.23396835 0.0329155 4.88804169 0.03218536 5.56193542 0.03143311 C7.71623717 0.03490684 9.86835565 0.07375013 12.02227783 0.11299133 C13.51870543 0.12232041 15.01514833 0.12943608 16.51159668 0.13442993 C20.44440095 0.15349285 24.37627738 0.20258585 28.30871582 0.25794983 C32.32378589 0.30915858 36.33900636 0.33194734 40.35430908 0.35713196 C48.22843212 0.41070677 56.10180196 0.49600926 63.97540283 0.60127258 C62.13671093 4.39161708 60.35918883 7.98150303 56.97540283 10.60127258 C53.72888761 11.59183318 50.54100384 11.79993621 47.16290283 11.97627258 C46.27925049 12.0445929 45.39559814 12.11291321 44.48516846 12.18330383 C42.31697801 12.34738311 40.14627915 12.47770946 37.97540283 12.60127258 C37.84490036 13.46083809 37.84490036 13.46083809 37.71176147 14.33776855 C36.11764409 23.93668703 33.5371299 33.2614414 31.03009033 42.65205383 C30.53608178 44.5149277 30.04244732 46.37790081 29.54916382 48.2409668 C28.25070947 53.14092828 26.94712894 58.03951161 25.64245605 62.93782043 C24.34403294 67.81633735 23.05060122 72.6961767 21.75665283 77.57588196 C20.74390715 81.3930123 19.73083342 85.21005549 18.71759033 89.02705383 C18.34610996 90.42652441 18.34610996 90.42652441 17.96712494 91.85426712 C15.47965233 101.22211411 12.98405034 110.58747728 10.44903564 119.94258118 C9.88590954 122.02755265 9.32310944 124.11261185 8.76041031 126.19769859 C8.24913467 128.08546294 7.73233653 129.97172889 7.21536255 131.85794067 C6.91590729 132.96715378 6.61645203 134.07636688 6.30792236 135.2191925 C6.04834747 136.17065659 5.78877258 137.12212067 5.52133179 138.10241699 C4.8331113 140.82627785 4.8331113 140.82627785 4.97540283 144.60127258 C11.90540283 145.92127258 18.83540283 147.24127258 25.97540283 148.60127258 C24.91583453 152.83954578 24.31670809 153.97708204 20.97540283 156.60127258 C8.43934183 159.61472548 -6.58301285 157.710762 -19.39959717 157.66377258 C-21.7928254 157.65874752 -24.18605465 157.65418639 -26.57928467 157.65010071 C-32.39441142 157.63917495 -38.20949943 157.62251666 -44.02459717 157.60127258 C-42.81360636 151.09698253 -42.81360636 151.09698253 -40.02459717 148.60127258 C-36.85326261 147.52759192 -33.62850564 146.93876612 -30.33709717 146.35127258 C-29.44442139 146.17853821 -28.55174561 146.00580383 -27.63201904 145.82783508 C-25.43185757 145.40427458 -23.22954672 144.99889353 -21.02459717 144.60127258 C-20.7900029 143.50891296 -20.55540863 142.41655334 -20.31370544 141.29109192 C-17.94163769 130.36419194 -15.25674308 119.55491114 -12.35662842 108.75752258 C-11.91274645 107.09358994 -11.46920769 105.42956572 -11.02598572 103.76545715 C-9.86716031 99.41800361 -8.70398744 95.07172583 -7.53973389 90.72572327 C-6.38573461 86.41536755 -5.23550473 82.10400679 -4.08514404 77.79267883 C-2.72722219 72.70416939 -1.36903458 67.6157322 -0.00900269 62.52778625 C4.34780507 46.22652939 8.66659173 29.91527373 12.97540283 13.60127258 C10.34053121 12.72298204 8.2608826 12.34142155 5.52618408 12.06611633 C4.67862549 11.97910461 3.83106689 11.8920929 2.95782471 11.80244446 C2.07675049 11.71543274 1.19567627 11.62842102 0.28790283 11.53877258 C-0.60477295 11.44789368 -1.49744873 11.35701477 -2.41717529 11.26338196 C-4.61935981 11.03963059 -6.82181485 10.81904657 -9.02459717 10.60127258 C-7.31475797 5.6142416 -5.5290618 1.0991458 0 0 Z " fill="#BB0000" transform="translate(765.0245971679688,35.39872741699219)"/>
</svg>
